# xmcd
#
# Track frame offsets:
# 150
# 11852
# 28879
# 45831
# 65033
# 84835
# 101862
# 118589
# 136591
# 158568
# 178370
# 194197
#
# Disc length: 2815 seconds
#
# Revision: 1
# Processed by: cddbd v1.5.2PL0 Copyright (c) Steve Scherf et al.
# Submitted via: CedeCatalogueitor 2.6.0.6 http://personales.ya.com/cdcatalogueitor
#
DISCID=a30afd0c
DTITLE=Varios Artistas - Sampler Cydonia
DYEAR=1900
DGENRE=
TTITLE0=Idaho
TTITLE1=The Moon Men
TTITLE2=Rainer Maria
TTITLE3=Madee
TTITLE4=Poor Rich Ones
TTITLE5=Ariel Kill Him
TTITLE6=Sunda's Best
TTITLE7=Lo Mueso
TTITLE8=The Hit
TTITLE9=Le Petit Ramon
TTITLE10=The Linn Youki Project
TTITLE11=Rainbubble
EXTD=
EXTT0=
EXTT1=
EXTT2=
EXTT3=
EXTT4=
EXTT5=
EXTT6=
EXTT7=
EXTT8=
EXTT9=
EXTT10=
EXTT11=
PLAYORDER=
